<svg width="166" height="60" viewBox="0 0 166 60" fill="none" xmlns="http://www.w3.org/2000/svg" class="transition-colors"><path fill-rule="evenodd" clip-rule="evenodd" d="M8.305 46.338V19.696l6.428-4.554v13.776l8.305-5.806V0L0 15.94v36.204l8.305-5.806zm21.047-32.676v26.642l-6.428 4.554V31.082l-8.305 5.806V60l23.037-15.94V7.857l-8.304 5.806z" fill="url(#paint0_linear_3574_556)"></path><path d="M65.787 22.644V38h-3.08v-6.534h-6.578V38h-3.08V22.644h3.08v6.314h6.578v-6.314h3.08zm14.691 3.168l-7.545 17.952h-3.279l2.64-6.072-4.883-11.88h3.454l3.145 8.514 3.19-8.514h3.278zm4.74 1.76c.397-.557.94-1.02 1.629-1.386.704-.381 1.503-.572 2.398-.572 1.041 0 1.98.257 2.816.77.85.513 1.518 1.247 2.002 2.2.498.939.748 2.031.748 3.278 0 1.247-.25 2.354-.748 3.322-.484.953-1.151 1.694-2.002 2.222-.836.528-1.775.792-2.816.792-.895 0-1.687-.183-2.376-.55a5.11 5.11 0 01-1.65-1.386v7.546h-3.08V25.812h3.08v1.76zm6.447 4.29c0-.733-.154-1.364-.462-1.892a3.01 3.01 0 00-1.188-1.232 3.118 3.118 0 00-1.584-.418c-.557 0-1.085.147-1.584.44-.484.279-.88.69-1.188 1.232-.294.543-.44 1.18-.44 1.914 0 .733.147 1.371.44 1.914.308.543.704.96 1.188 1.254a3.198 3.198 0 001.584.418 3 3 0 001.584-.44 3.162 3.162 0 001.188-1.254c.308-.543.462-1.188.462-1.936zm16.714-.22c0 .44-.029.836-.088 1.188h-8.91c.073.88.381 1.57.924 2.068.543.499 1.21.748 2.002.748 1.144 0 1.958-.491 2.442-1.474h3.322c-.352 1.173-1.027 2.141-2.024 2.904-.997.748-2.222 1.122-3.674 1.122-1.173 0-2.229-.257-3.168-.77a5.668 5.668 0 01-2.178-2.222c-.513-.953-.77-2.053-.77-3.3 0-1.261.257-2.369.77-3.322a5.372 5.372 0 012.156-2.2c.924-.513 1.987-.77 3.19-.77 1.159 0 2.193.25 3.102.748a5.162 5.162 0 012.134 2.134c.513.91.77 1.958.77 3.146zm-3.19-.88c-.015-.792-.301-1.423-.858-1.892-.557-.484-1.239-.726-2.046-.726-.763 0-1.408.235-1.936.704-.513.455-.829 1.093-.946 1.914h5.786zm8.518-3.058a4.357 4.357 0 011.54-1.518c.645-.367 1.379-.55 2.2-.55v3.234h-.814c-.968 0-1.701.227-2.2.682-.484.455-.726 1.247-.726 2.376V38h-3.08V25.812h3.08v1.892zm22.711-1.892L132.854 38h-3.322l-2.222-8.514L125.088 38h-3.344l-3.586-12.188h3.124l2.156 9.284 2.332-9.284h3.256l2.288 9.262 2.156-9.262h2.948zm12.996 5.83c0 .44-.029.836-.088 1.188h-8.91c.073.88.381 1.57.924 2.068.543.499 1.21.748 2.002.748 1.144 0 1.958-.491 2.442-1.474h3.322c-.352 1.173-1.027 2.141-2.024 2.904-.997.748-2.222 1.122-3.674 1.122-1.173 0-2.229-.257-3.168-.77a5.668 5.668 0 01-2.178-2.222c-.513-.953-.77-2.053-.77-3.3 0-1.261.257-2.369.77-3.322a5.37 5.37 0 012.156-2.2c.924-.513 1.987-.77 3.19-.77 1.159 0 2.193.25 3.102.748a5.162 5.162 0 012.134 2.134c.513.91.77 1.958.77 3.146zm-3.19-.88c-.015-.792-.301-1.423-.858-1.892-.557-.484-1.239-.726-2.046-.726-.763 0-1.408.235-1.936.704-.513.455-.829 1.093-.946 1.914h5.786zm8.518-3.168c.396-.587.939-1.063 1.628-1.43.704-.367 1.504-.55 2.398-.55 1.042 0 1.98.257 2.816.77.851.513 1.518 1.247 2.002 2.2.499.939.748 2.031.748 3.278 0 1.247-.249 2.354-.748 3.322-.484.953-1.151 1.694-2.002 2.222-.836.528-1.774.792-2.816.792-.909 0-1.708-.176-2.398-.528a4.777 4.777 0 01-1.628-1.408V38h-3.08V21.72h3.08v5.874zm6.446 4.268c0-.733-.154-1.364-.462-1.892a3.006 3.006 0 00-1.188-1.232 3.119 3.119 0 00-1.584-.418c-.557 0-1.085.147-1.584.44-.484.279-.88.69-1.188 1.232-.293.543-.44 1.18-.44 1.914 0 .733.147 1.371.44 1.914.308.543.704.96 1.188 1.254a3.2 3.2 0 001.584.418 3 3 0 001.584-.44 3.157 3.157 0 001.188-1.254c.308-.543.462-1.188.462-1.936z" fill="currentColor"></path><defs><linearGradient id="paint0_linear_3574_556" x1="18.8282" y1="0" x2="18.8282" y2="60" gradientUnits="userSpaceOnUse"><stop stop-color="#1EC9FF"></stop><stop offset="1" stop-color="#1E78FF"></stop></linearGradient></defs></svg>
