<svg width="166" height="60" viewBox="0 0 166 60" fill="none" xmlns="http://www.w3.org/2000/svg">
<path fill-rule="evenodd" clip-rule="evenodd" d="M8.305 46.338V19.696L14.733 15.142V28.918L23.038 23.112V0L0 15.94V52.144L8.305 46.338ZM29.352 13.662V40.304L22.924 44.858V31.082L14.619 36.888V60L37.656 44.06V7.857L29.352 13.663V13.662Z" fill="url(#paint0_linear_3881_59)"/>
<path d="M65.7868 22.6437V37.9997H62.7068V31.4657H56.1288V37.9997H53.0488V22.6437H56.1288V28.9577H62.7068V22.6437H65.7868ZM80.4778 25.8117L72.9328 43.7637H69.6538L72.2938 37.6917L67.4108 25.8117H70.8648L74.0098 34.3257L77.1998 25.8117H80.4778ZM85.2178 27.5717C85.6148 27.0147 86.1578 26.5517 86.8468 26.1857C87.5508 25.8047 88.3498 25.6137 89.2448 25.6137C90.2858 25.6137 91.2248 25.8707 92.0608 26.3837C92.9108 26.8967 93.5788 27.6307 94.0628 28.5837C94.5608 29.5227 94.8108 30.6147 94.8108 31.8617C94.8108 33.1087 94.5608 34.2157 94.0628 35.1837C93.5788 36.1367 92.9118 36.8777 92.0608 37.4057C91.2248 37.9337 90.2858 38.1977 89.2448 38.1977C88.3498 38.1977 87.5578 38.0147 86.8688 37.6477C86.2266 37.3083 85.6641 36.8358 85.2188 36.2617V43.8077H82.1388V25.8117H85.2188L85.2178 27.5717ZM91.6648 31.8617C91.6648 31.1287 91.5108 30.4977 91.2028 29.9697C90.9344 29.4528 90.5217 29.0248 90.0148 28.7377C89.5335 28.4597 88.9866 28.3154 88.4308 28.3197C87.8727 28.3202 87.3252 28.4723 86.8468 28.7597C86.3628 29.0387 85.9668 29.4497 85.6588 29.9917C85.3648 30.5347 85.2188 31.1717 85.2188 31.9057C85.2188 32.6387 85.3658 33.2767 85.6588 33.8197C85.9668 34.3627 86.3628 34.7797 86.8468 35.0737C87.3296 35.3482 87.8755 35.4923 88.4308 35.4917C88.9895 35.4954 89.5381 35.343 90.0148 35.0517C90.5195 34.7521 90.9309 34.3179 91.2028 33.7977C91.5108 33.2547 91.6648 32.6097 91.6648 31.8617ZM108.379 31.6417C108.379 32.0817 108.35 32.4777 108.291 32.8297H99.3808C99.4538 33.7097 99.7618 34.3997 100.305 34.8977C100.848 35.3967 101.515 35.6457 102.307 35.6457C103.451 35.6457 104.265 35.1547 104.749 34.1717H108.071C107.719 35.3447 107.044 36.3127 106.047 37.0757C105.05 37.8237 103.825 38.1977 102.373 38.1977C101.2 38.1977 100.144 37.9407 99.2048 37.4277C98.2858 36.9047 97.5313 36.1351 97.0268 35.2057C96.5138 34.2527 96.2568 33.1527 96.2568 31.9057C96.2568 30.6447 96.5138 29.5367 97.0268 28.5837C97.5153 27.6557 98.2648 26.8909 99.1828 26.3837C100.107 25.8707 101.17 25.6137 102.373 25.6137C103.532 25.6137 104.566 25.8637 105.475 26.3617C106.383 26.8446 107.126 27.5877 107.609 28.4957C108.122 29.4057 108.379 30.4537 108.379 31.6417ZM105.189 30.7617C105.174 29.9697 104.888 29.3387 104.331 28.8697C103.774 28.3857 103.092 28.1437 102.285 28.1437C101.522 28.1437 100.877 28.3787 100.349 28.8477C99.8358 29.3027 99.5198 29.9407 99.4028 30.7617H105.189ZM113.707 27.7037C114.084 27.0764 114.614 26.5543 115.247 26.1857C115.892 25.8187 116.626 25.6357 117.447 25.6357V28.8697H116.633C115.665 28.8697 114.932 29.0967 114.433 29.5517C113.949 30.0067 113.707 30.7987 113.707 31.9277V37.9997H110.627V25.8117H113.707V27.7037ZM136.418 25.8117L132.854 37.9997H129.532L127.31 29.4857L125.088 37.9997H121.744L118.158 25.8117H121.282L123.438 35.0957L125.77 25.8117H129.026L131.314 35.0737L133.47 25.8117H136.418ZM149.414 31.6417C149.414 32.0817 149.385 32.4777 149.326 32.8297H140.416C140.489 33.7097 140.797 34.3997 141.34 34.8977C141.883 35.3967 142.55 35.6457 143.342 35.6457C144.486 35.6457 145.3 35.1547 145.784 34.1717H149.106C148.754 35.3447 148.079 36.3127 147.082 37.0757C146.085 37.8237 144.86 38.1977 143.408 38.1977C142.235 38.1977 141.179 37.9407 140.24 37.4277C139.321 36.9047 138.566 36.1351 138.062 35.2057C137.549 34.2527 137.292 33.1527 137.292 31.9057C137.292 30.6447 137.549 29.5367 138.062 28.5837C138.55 27.6556 139.3 26.8908 140.218 26.3837C141.142 25.8707 142.205 25.6137 143.408 25.6137C144.567 25.6137 145.601 25.8637 146.51 26.3617C147.418 26.8446 148.161 27.5877 148.644 28.4957C149.157 29.4057 149.414 30.4537 149.414 31.6417ZM146.224 30.7617C146.209 29.9697 145.923 29.3387 145.366 28.8697C144.809 28.3857 144.127 28.1437 143.32 28.1437C142.557 28.1437 141.912 28.3787 141.384 28.8477C140.871 29.3027 140.555 29.9407 140.438 30.7617H146.224ZM154.742 27.5937C155.138 27.0067 155.681 26.5307 156.37 26.1637C157.074 25.7967 157.874 25.6137 158.768 25.6137C159.81 25.6137 160.748 25.8707 161.584 26.3837C162.435 26.8967 163.102 27.6307 163.586 28.5837C164.085 29.5227 164.334 30.6147 164.334 31.8617C164.334 33.1087 164.085 34.2157 163.586 35.1837C163.102 36.1367 162.435 36.8777 161.584 37.4057C160.748 37.9337 159.81 38.1977 158.768 38.1977C157.859 38.1977 157.06 38.0217 156.37 37.6697C155.727 37.3304 155.17 36.8488 154.742 36.2617V37.9997H151.662V21.7197H154.742V27.5937ZM161.188 31.8617C161.188 31.1287 161.034 30.4977 160.726 29.9697C160.458 29.4526 160.045 29.0246 159.538 28.7377C159.057 28.4597 158.51 28.3154 157.954 28.3197C157.396 28.3202 156.848 28.4723 156.37 28.7597C155.886 29.0387 155.49 29.4497 155.182 29.9917C154.889 30.5347 154.742 31.1717 154.742 31.9057C154.742 32.6387 154.889 33.2767 155.182 33.8197C155.49 34.3627 155.886 34.7797 156.37 35.0737C156.853 35.3481 157.399 35.4922 157.954 35.4917C158.512 35.4954 159.061 35.343 159.538 35.0517C160.043 34.7523 160.454 34.318 160.726 33.7977C161.034 33.2547 161.188 32.6097 161.188 31.8617Z" fill="white"/>
<defs>
<linearGradient id="paint0_linear_3881_59" x1="18.828" y1="0" x2="18.828" y2="60" gradientUnits="userSpaceOnUse">
<stop stop-color="#1EC9FF"/>
<stop offset="1" stop-color="#1E78FF"/>
</linearGradient>
</defs>
</svg>
